# xmcd CD database file
# Copyright (C) 1993-1998 Ti Kan
#
# Track frame offsets:
#	182
#	13420
#	24800
#	36275
#	52355
#	65267
#	76232
#	90085
#	103750
#	115255
#	127252
#	138527
#
# Disc length: 2025 seconds
#
# Revision: 0
# Processed by: cddbd v1.4b41PL1 Copyright (c) Steve Scherf et al.
# Submitted via: CDmax 1.5
#
DISCID=a107e70c
DTITLE=Glen Campbell - All-Time Greatest Hits [CD2 of 3)
DYEAR=1900
DGENRE=
TTITLE0=Gentle On My Mind
TTITLE1=Dream Baby (How Long Must I Dream)
TTITLE2=True Grit
TTITLE3=Oh Happy Day
TTITLE4=Sunflower
TTITLE5=It's A Sin When You Love Somebody
TTITLE6=Country Boy (You Got Your Feet In L.A.
TTITLE7=Wichita Lineman
TTITLE8=All I Have To Do Is Dream (with Bobbie Gentry)
TTITLE9=Galveston
TTITLE10=Everything A Man Could Ever Need
TTITLE11=Oklahoma Sunday Morning
EXTD=
EXTT0=
EXTT1=
EXTT2=
EXTT3=
EXTT4=
EXTT5=
EXTT6=
EXTT7=
EXTT8=
EXTT9=
EXTT10=
EXTT11=
PLAYORDER=
